<svg width="16" height="16" viewBox="0 0 16 16" fill="none" xmlns="http://www.w3.org/2000/svg">
<g id="Group">
<g id="Group_2">
<path id="Path" fill-rule="evenodd" clip-rule="evenodd" d="M4.33331 4.66602H8.33331V7.33268H4.33331V4.66602Z" stroke="white" stroke-width="1.2" stroke-linecap="round" stroke-linejoin="round"/>
<path id="Path_2" d="M5 9.99935H7.66667" stroke="white" stroke-width="1.2" stroke-linecap="round" stroke-linejoin="round"/>
<path id="Path_3" d="M2.33331 14V3.33333C2.33331 2.59667 2.92998 2 3.66665 2H8.99998C9.73665 2 10.3333 2.59667 10.3333 3.33333V14" stroke="white" stroke-width="1.2" stroke-linecap="round" stroke-linejoin="round"/>
<path id="Path_4" d="M13 3.33398L13.9426 4.27665C14.1926 4.52665 14.3333 4.86598 14.3333 5.21932V11.6673C14.3333 12.2193 13.8853 12.6673 13.3333 12.6673V12.6673C12.7813 12.6673 12.3333 12.2193 12.3333 11.6673V10.6673C12.3333 10.2993 12.0346 10.0007 11.6666 10.0007H10.3333" stroke="white" stroke-width="1.2" stroke-linecap="round" stroke-linejoin="round"/>
<path id="Path_5" d="M14.3334 8.00065H13.0887C12.688 8.00065 12.3774 7.64932 12.4274 7.25132L12.594 5.91798C12.6354 5.58465 12.9187 5.33398 13.2554 5.33398H14.3334" stroke="white" stroke-width="1.2" stroke-linecap="round" stroke-linejoin="round"/>
<path id="Path_6" d="M1.66669 13.9993H11" stroke="white" stroke-width="1.2" stroke-linecap="round" stroke-linejoin="round"/>
</g>
</g>
</svg>
