<svg width="26" height="26" viewBox="0 0 26 26" fill="none" xmlns="http://www.w3.org/2000/svg">
<g id="Group">
<path id="Path" d="M7.99798 12.333H5.3302" stroke="#8A8C91" stroke-width="1.8" stroke-linecap="round" stroke-linejoin="round"/>
<path id="Path_2" d="M20.8473 8.05712L23.6711 6.64453" stroke="#8A8C91" stroke-width="1.8" stroke-linecap="round" stroke-linejoin="round"/>
<path id="Path_3" d="M3.82017 8.05712L0.994995 6.64453" stroke="#8A8C91" stroke-width="1.8" stroke-linecap="round" stroke-linejoin="round"/>
<path id="Path_4" d="M20.9368 8.53799L19.6512 3.05316C19.3685 1.84698 18.2927 0.994141 17.0538 0.994141H7.61227C6.37341 0.994141 5.29757 1.84699 5.01488 3.05316L3.72937 8.53799" stroke="#8A8C91" stroke-width="1.8" stroke-linecap="round" stroke-linejoin="round"/>
<path id="Path_5" d="M23.6711 13.0006V12.3337C23.6711 10.1236 21.8795 8.33203 19.6694 8.33203H4.99666C2.7866 8.33203 0.994995 10.1236 0.994995 12.3337V18.3362C0.994995 19.0729 1.5922 19.6701 2.32888 19.6701H5.31146C6.04815 19.6701 6.64535 19.0729 6.64535 18.3362V16.3354H12.9613" stroke="#8A8C91" stroke-width="1.8" stroke-linecap="round" stroke-linejoin="round"/>
<path id="Path_6" d="M23.242 17.5191C24.8221 19.0992 24.822 21.6611 23.2419 23.2412C21.6618 24.8213 19.1 24.8213 17.5199 23.2412C15.9398 21.6611 15.9397 19.0992 17.5198 17.5191C18.2786 16.7603 19.3078 16.334 20.3809 16.334C21.454 16.334 22.4832 16.7603 23.242 17.5191V17.5191V17.5191" stroke="#8A8C91" stroke-width="1.8" stroke-linecap="round" stroke-linejoin="round"/>
<path id="Path_7" d="M23.2709 23.2695L25.0049 25.0036" stroke="#8A8C91" stroke-width="1.8" stroke-linecap="round" stroke-linejoin="round"/>
<path id="Path_8" d="M16.6682 12.333H19.3359" stroke="#8A8C91" stroke-width="1.8" stroke-linecap="round" stroke-linejoin="round"/>
</g>
</svg>
