<svg width="29" height="28" viewBox="0 0 29 28" fill="none" xmlns="http://www.w3.org/2000/svg">
<g id="Group">
<g id="Group_2">
<path id="Path" fill-rule="evenodd" clip-rule="evenodd" d="M6.5 6H11.8333V11.3333H6.5V6Z" stroke="#8A8C91" stroke-width="1.8" stroke-linecap="round" stroke-linejoin="round"/>
<path id="Path_2" fill-rule="evenodd" clip-rule="evenodd" d="M6.5 16.666H11.8333V21.9993H6.5V16.666Z" stroke="#8A8C91" stroke-width="1.8" stroke-linecap="round" stroke-linejoin="round"/>
<path id="Path_3" fill-rule="evenodd" clip-rule="evenodd" d="M22.5 11.334H17.1667V6.00065L22.5 6.00065V11.334Z" stroke="#8A8C91" stroke-width="1.8" stroke-linecap="round" stroke-linejoin="round"/>
<path id="Path_4" d="M19.8807 19.2855C19.9067 19.3116 19.9067 19.3538 19.8807 19.3798C19.8546 19.4059 19.8124 19.4059 19.7864 19.3798C19.7604 19.3538 19.7604 19.3116 19.7864 19.2855C19.8124 19.2595 19.8546 19.2595 19.8807 19.2855" stroke="#8A8C91" stroke-width="1.8" stroke-linecap="round" stroke-linejoin="round"/>
<path id="Path_5" d="M17.2138 16.6195C17.2398 16.6456 17.2398 16.6878 17.2138 16.7138C17.1878 16.7398 17.1456 16.7398 17.1195 16.7138C17.0935 16.6878 17.0935 16.6456 17.1195 16.6195C17.1456 16.5935 17.1878 16.5935 17.2138 16.6195" stroke="#8A8C91" stroke-width="1.8" stroke-linecap="round" stroke-linejoin="round"/>
<path id="Path_6" d="M17.2138 21.9535C17.2398 21.9795 17.2398 22.0218 17.2138 22.0478C17.1878 22.0738 17.1456 22.0738 17.1195 22.0478C17.0935 22.0218 17.0935 21.9795 17.1195 21.9535C17.1456 21.9275 17.1878 21.9275 17.2138 21.9535" stroke="#8A8C91" stroke-width="1.8" stroke-linecap="round" stroke-linejoin="round"/>
<path id="Path_7" d="M22.5471 21.9535C22.5731 21.9795 22.5731 22.0218 22.5471 22.0478C22.521 22.0738 22.4788 22.0738 22.4528 22.0478C22.4267 22.0218 22.4267 21.9795 22.4528 21.9535C22.4788 21.9275 22.521 21.9275 22.5471 21.9535" stroke="#8A8C91" stroke-width="1.8" stroke-linecap="round" stroke-linejoin="round"/>
<path id="Path_8" d="M27.1665 8.63799V4.00065C27.1665 2.52732 25.9732 1.33398 24.4999 1.33398H19.8625" stroke="#8A8C91" stroke-width="1.8" stroke-linecap="round" stroke-linejoin="round"/>
<path id="Path_9" d="M9.13725 1.33398H4.49992C3.02659 1.33398 1.83325 2.52732 1.83325 4.00065V8.63799" stroke="#8A8C91" stroke-width="1.8" stroke-linecap="round" stroke-linejoin="round"/>
<path id="Path_10" d="M1.83325 19.3633V24.0006C1.83325 25.4739 3.02659 26.6673 4.49992 26.6673H9.13725" stroke="#8A8C91" stroke-width="1.8" stroke-linecap="round" stroke-linejoin="round"/>
<path id="Path_11" d="M19.8625 26.6673H24.4999C25.9732 26.6673 27.1665 25.4739 27.1665 24.0006V19.3633" stroke="#8A8C91" stroke-width="1.8" stroke-linecap="round" stroke-linejoin="round"/>
<path id="Path_12" d="M22.5471 16.6195C22.5731 16.6456 22.5731 16.6878 22.5471 16.7138C22.521 16.7398 22.4788 16.7398 22.4528 16.7138C22.4267 16.6878 22.4267 16.6456 22.4528 16.6195C22.4788 16.5935 22.521 16.5935 22.5471 16.6195" stroke="#8A8C91" stroke-width="1.8" stroke-linecap="round" stroke-linejoin="round"/>
</g>
</g>
</svg>
